
Complete name                    : Up in the air 2009.avi
Format                           : AVI
File size                        : 1.37 GiB
Duration                         : 1h 44mn
Overall bit rate                 : 1 870 Kbps

Video

Format                           : MPEG-4 Visual
Codec ID/Hint                    : XviD
Duration                         : 1h 44mn
Bit rate                         : 1 411 Kbps
Width                            : 720 pixels
Height                           : 552 pixels
Display aspect ratio             : 1.855
Stream size                      : 1.03 GiB (75%)
Writing library                  : XviD 1.1.2 (UTC 2006-11-01)

Audio

Format                           : AC-3
Duration                         : 1h 44mn
Bit rate                         : 448 Kbps
Channel(s)                       : 6 channels
Channel positions                : Front: L C R, Side: L R, LFE
Sampling rate                    : 48.0 KHz
Bit depth                        : 16 bits
Stream size                      : 336 MiB (24%)


Text #1
Language                         : English

Text #2
Language                         : Dutch

Text #3
Language                         : Danish

Text #4
Language                         : Finnish

Text #5
Language                         : Norwegian

Text #6
Language                         : Swedish

Text #7
Language                         : English

Text #8
Language                         : English